<?xml version="1.0" encoding="iso-8859-1"?>
<!-- Generator: Adobe Illustrator 16.0.0, SVG Export Plug-In . SVG Version: 6.00 Build 0)  -->
<!DOCTYPE svg PUBLIC "-//W3C//DTD SVG 1.1//EN" "http://www.w3.org/Graphics/SVG/1.1/DTD/svg11.dtd">
<svg xmlns="http://www.w3.org/2000/svg" xmlns:xlink="http://www.w3.org/1999/xlink" version="1.1" id="Capa_1" x="0px" y="0px" width="512px" height="512px" viewBox="0 0 410.176 410.176" style="enable-background:new 0 0 410.176 410.176;" xml:space="preserve">
<g>
	<g>
		<path d="M119.013,284.416c4.359,0,11.004,1.687,14.828,3.788c11.37,6.241,34.586,19.084,69.355,38.369    c8.438,4.688,16.653,7.064,24.418,7.064c20.52,0,33.773-16.22,33.773-41.325V115.776c0-24.205-11.583-39.238-30.234-39.238    c-8.09,0-17.093,3.136-26.03,9.077l-71.985,47.827c-3.633,2.417-10.121,4.367-14.48,4.367H67.134C30.115,137.81,0,170.689,0,211.1    c0,40.421,30.115,73.311,67.134,73.311h51.879V284.416z M122.245,149.662c4.36,0,10.847-1.96,14.48-4.37l74.964-49.817    c6.992-4.639,13.721-7.086,19.474-7.086c11.507,0,18.383,10.237,18.383,27.388v176.541c0,18.18-8.404,29.478-21.922,29.478    c-5.729,0-11.999-1.873-18.667-5.58c-78.708-43.63-78.708-43.63-80.598-43.63h-61.21c-30.485,0-55.284-27.574-55.284-61.464    c0-33.873,24.798-61.436,55.284-61.436h55.096V149.662z" fill="#506dad"/>
		<path d="M290.98,174.023c1.839,0.681,3.9,0.404,5.505-0.749l45.747-32.872c2.651-1.904,3.25-5.616,1.346-8.287    c-1.833-2.529-5.702-3.161-8.262-1.343l-45.752,32.873c-2.651,1.912-3.261,5.616-1.352,8.287    C288.919,172.893,289.869,173.615,290.98,174.023z" fill="#506dad"/>
		<path d="M404.296,203.412l-109.146-0.751c-3.261-0.016-5.932,2.625-5.962,5.885c-0.016,2.488,1.549,4.748,3.885,5.611    c0.624,0.219,1.295,0.346,2.001,0.361l109.146,0.746c3.26,0.015,5.941-2.615,5.956-5.886    C410.191,206.2,407.521,203.435,404.296,203.412z" fill="#506dad"/>
		<path d="M347.331,269.09l-54.618-24.288c-2.915-1.066-6.19,0.315-7.455,3.148c-1.315,2.986,0.021,6.495,3.006,7.82l54.223,24.131    l0.406,0.162c2.92,1.077,6.19-0.314,7.455-3.148C351.668,273.93,350.317,270.421,347.331,269.09z" fill="#506dad"/>
	</g>
</g>
<g>
</g>
<g>
</g>
<g>
</g>
<g>
</g>
<g>
</g>
<g>
</g>
<g>
</g>
<g>
</g>
<g>
</g>
<g>
</g>
<g>
</g>
<g>
</g>
<g>
</g>
<g>
</g>
<g>
</g>
</svg>
